<svg width="122.88" height="92.65" xmlns="http://www.w3.org/2000/svg">
 <g>
  <title>background</title>
  <rect x="-1" y="-1" width="124.88" height="94.65" id="canvas_background" fill="none"/>
 </g>

 <g>
  <title>Layer 1</title>
  <path d="m81.73,0c12.2,0 22.11,9.89 22.11,22.11c0,12.2 -9.89,22.11 -22.11,22.11c-12.2,0 -22.11,-9.89 -22.11,-22.11c0.01,-12.2 9.9,-22.11 22.11,-22.11zm-81.73,39.37l24.83,0l0,44.18l-24.83,0l0,-44.18zm29.83,40.47l0,-36.93l16.61,0c7.04,1.26 14.08,5.08 21.12,9.51l12.9,0c5.84,0.35 8.9,6.27 3.22,10.16c-4.52,3.32 -10.49,3.13 -16.61,2.58c-4.22,-0.21 -4.4,5.46 0,5.48c1.53,0.12 3.19,-0.24 4.64,-0.24c7.64,-0.01 13.92,-1.47 17.77,-7.5l1.93,-4.51l19.19,-9.51c9.6,-3.16 16.42,6.88 9.35,13.87c-13.9,10.11 -28.15,18.43 -42.73,25.15c-10.59,6.44 -21.18,6.22 -31.76,0l-15.63,-8.06zm44.65,-69.12l14.52,0c0.12,0 0.23,0.1 0.23,0.23l0,2.21c0,0.13 -0.1,0.23 -0.23,0.23l-4.53,0c0.71,0.83 1.23,1.83 1.46,2.93l3.07,0c0.12,0 0.23,0.1 0.23,0.23l0,2.21c0,0.13 -0.1,0.23 -0.23,0.23l-3.08,0c-0.28,1.32 -0.96,2.5 -1.91,3.41a6.99,6.99 0 0 1 -4.84,1.93l0,0.01l-0.21,0l8.14,9.28c0.22,0.25 -0.17,0.81 -0.34,0.81l-3.76,0.02l-8.69,-9.91a0.306,0.306 0 0 1 -0.06,-0.29l0,-3.63l4.92,0l0,0.01c0.88,0 1.69,-0.35 2.27,-0.9c0.23,-0.22 0.42,-0.46 0.56,-0.73l-7.53,0c-0.12,0 -0.23,-0.1 -0.23,-0.23l0,-2.21c0,-0.13 0.1,-0.23 0.23,-0.23l7.53,0c-0.15,-0.27 -0.34,-0.52 -0.56,-0.73c-0.58,-0.56 -1.38,-0.9 -2.27,-0.9l0,0.01l-4.92,0l0,-3.75c0,-0.14 0.11,-0.24 0.23,-0.24z" fill-rule="evenodd" clip-rule="evenodd" id="svg_1" fill="#ffc629"/>
 </g>
</svg>