<svg width="122.88" height="107.19" xmlns="http://www.w3.org/2000/svg">
 <defs>
  <style>.cls-1{fill-rule:evenodd;}</style>
 </defs>
 <title>hand-money</title>
 <g>
  <title>background</title>
  <rect x="-1" y="-1" width="124.88" height="109.19" id="canvas_background" fill="none"/>
 </g>
 <g>
  <title>Layer 1</title>
  <path class="cls-1" d="m25.11,94.69l0,-38.78l17.45,0c7.43,1.31 14.79,5.31 22.19,10l13.55,0c6.14,0.37 9.35,6.59 3.39,10.67c-4.75,3.49 -11,3.29 -17.46,2.72c-4.43,-0.22 -4.62,5.72 0,5.75c1.61,0.13 3.36,-0.25 4.88,-0.25c8,0 14.63,-1.54 18.67,-7.88l2,-4.74l20.2,-10c10.09,-3.32 17.27,7.23 9.83,14.57a263.86,263.86 0 0 1 -44.92,26.45c-11.13,6.77 -22.26,6.54 -33.36,0l-16.42,-8.51zm25.5,-93.69l65.12,19.66l-9.79,34.18l-4.58,-0.7l7,-25l0.1,-0.32a4.47,4.47 0 0 0 -3.12,-5.48l-2.2,-0.6l0,-0.07l-10.36,-2.74l-43.65,-13.78l1.48,-5.15zm-10.77,6.9l65.16,19.65l-9.83,34.18l-65.12,-19.65l9.79,-34.18zm22.69,21.76a8.09,8.09 0 1 1 0.34,11.42a8.09,8.09 0 0 1 -0.34,-11.42zm-13.19,-13.42l43.09,13.36a5.26,5.26 0 0 0 3.57,6.49l-3.82,13.52a5.25,5.25 0 0 0 -6.49,3.61l-43.1,-13.36a5.26,5.26 0 0 0 -3.59,-6.49l3.86,-13.52a5.25,5.25 0 0 0 6.5,-3.61l-0.02,0zm-49.34,35.98l19.86,0l0,46.37l-19.86,0l0,-46.37z" id="svg_1" fill="#ffc629"/>
 </g>
</svg>