<svg width="117.2" height="122.88" xmlns="http://www.w3.org/2000/svg">
 <g>
  <title>background</title>
  <rect fill="none" id="canvas_background" height="124.88" width="119.2" y="-1" x="-1"/>
 </g>

 <g>
  <title>Layer 1</title>
  <g id="svg_1">
   <path fill="#000000" id="svg_2" d="m13.6,0l94.33,0c2.54,0 4.86,1.04 6.54,2.72l0.01,0.01c1.68,1.68 2.72,4 2.72,6.54l0,95.79c0,2.54 -1.04,4.86 -2.72,6.54l-0.01,0.01c-1.68,1.68 -4,2.72 -6.54,2.72l-9.01,0l-3.72,8.54l-10.42,0l-3.9,-8.54l-37.72,0l-3.72,8.54l-10.42,0l-3.9,-8.54l-11.52,0c-2.54,0 -4.86,-1.04 -6.54,-2.72l-0.01,-0.01c-1.68,-1.68 -2.72,-4 -2.72,-6.54l0,-8.35l-2.03,0c-1.26,0 -2.3,-1.03 -2.3,-2.3l0,-29.48c0,-1.26 1.03,-2.3 2.3,-2.3l2.03,0l0,-13.31l-2.03,0c-1.26,0 -2.3,-1.03 -2.3,-2.3l0,-29.49c0,-1.26 1.03,-2.3 2.3,-2.3l2.03,0l0,-5.96c0,-2.54 1.04,-4.86 2.72,-6.54l0.01,-0.01c1.68,-1.68 4,-2.72 6.54,-2.72l0,0zm37.11,35.13c0.6,1.05 0.24,2.39 -0.81,2.99c-1.05,0.6 -2.39,0.24 -2.99,-0.81l-2.87,-4.97c-1.6,1.08 -3.08,2.31 -4.44,3.67c-1.36,1.36 -2.59,2.84 -3.67,4.44l4.98,2.88c1.05,0.61 1.41,1.95 0.8,3s-1.95,1.41 -3,0.8l-4.98,-2.87c-1.64,3.39 -2.68,7.12 -2.96,11.07l5.74,0c1.21,0 2.2,0.99 2.2,2.2c0,1.21 -0.99,2.2 -2.2,2.2l-5.74,0c0.28,3.95 1.32,7.69 2.96,11.07l4.98,-2.88c1.05,-0.6 2.39,-0.24 2.99,0.81c0.6,1.05 0.24,2.39 -0.81,2.99l-4.97,2.87c1.08,1.6 2.31,3.08 3.67,4.44c1.36,1.36 2.84,2.59 4.44,3.67l2.88,-4.98c0.61,-1.05 1.95,-1.41 3,-0.8c1.05,0.61 1.41,1.95 0.8,3l-2.87,4.98c3.39,1.64 7.12,2.68 11.07,2.96l0,-5.76c0,-1.21 0.99,-2.2 2.2,-2.2c1.21,0 2.2,0.99 2.2,2.2l0,5.74c3.95,-0.28 7.69,-1.32 11.07,-2.96l-2.88,-4.98c-0.6,-1.05 -0.24,-2.39 0.81,-2.99c1.05,-0.6 2.39,-0.24 2.99,0.81l2.87,4.97c1.6,-1.08 3.08,-2.31 4.44,-3.67c1.36,-1.36 2.59,-2.85 3.67,-4.44l-4.97,-2.87c-1.05,-0.6 -1.41,-1.94 -0.81,-2.99c0.6,-1.05 1.94,-1.41 2.99,-0.81l4.98,2.88c1.65,-3.39 2.68,-7.13 2.96,-11.07l-5.73,0c-1.21,0 -2.2,-0.99 -2.2,-2.2c0,-1.21 0.99,-2.2 2.2,-2.2l5.74,0c-0.28,-3.95 -1.32,-7.69 -2.96,-11.07l-4.98,2.88c-1.05,0.6 -2.39,0.24 -2.99,-0.81c-0.6,-1.05 -0.24,-2.39 0.81,-2.99l4.97,-2.87c-1.08,-1.6 -2.31,-3.08 -3.67,-4.44c-1.36,-1.36 -2.85,-2.59 -4.44,-3.67l-2.87,4.97c-0.6,1.05 -1.94,1.41 -2.99,0.81c-1.05,-0.6 -1.41,-1.94 -0.81,-2.99l2.88,-4.98c-3.39,-1.65 -7.13,-2.68 -11.07,-2.96l0,5.74c0,1.21 -0.99,2.2 -2.2,2.2c-1.21,0 -2.2,-0.99 -2.2,-2.2l0,-5.74c-3.95,0.28 -7.69,1.32 -11.07,2.96l2.86,4.97l0,0zm-41.99,27.5l2.21,0c1.26,0 2.3,1.03 2.3,2.3l0,29.49c0,1.26 -1.03,2.3 -2.3,2.3l-2.21,0l0,8.35c0,1.34 0.55,2.56 1.42,3.44l0.01,0.01c0.88,0.88 2.1,1.42 3.44,1.42l94.33,0c1.34,0 2.56,-0.55 3.44,-1.42l0.01,-0.01c0.88,-0.88 1.42,-2.1 1.42,-3.44l0,-95.8c0,-1.34 -0.55,-2.56 -1.42,-3.44l-0.01,-0.01c-0.88,-0.88 -2.1,-1.42 -3.44,-1.42l-94.32,0c-1.34,0 -2.56,0.55 -3.44,1.42l-0.01,0.01c-0.88,0.88 -1.42,2.1 -1.42,3.44l0,5.96l2.21,0c1.26,0 2.3,1.03 2.3,2.3l0,29.49c0,1.26 -1.03,2.3 -2.3,2.3l-2.22,0l0,13.31l0,0zm52.39,-24.11c5.24,0 9.99,2.13 13.43,5.56s5.56,8.18 5.56,13.43c0,5.24 -2.13,9.99 -5.56,13.43c-3.44,3.44 -8.18,5.56 -13.43,5.56c-5.24,0 -9.99,-2.13 -13.43,-5.56c-3.44,-3.44 -5.56,-8.18 -5.56,-13.43c0,-5.24 2.13,-9.99 5.56,-13.43c3.43,-3.43 8.18,-5.56 13.43,-5.56l0,0zm0,-15.82c9.61,0 18.32,3.9 24.62,10.2c6.3,6.3 10.2,15 10.2,24.62s-3.9,18.32 -10.2,24.62c-6.3,6.3 -15,10.2 -24.62,10.2c-9.61,0 -18.32,-3.9 -24.62,-10.2c-6.3,-6.3 -10.2,-15 -10.2,-24.62c0,-9.61 3.9,-18.32 10.2,-24.62c6.3,-6.3 15,-10.2 24.62,-10.2l0,0z"/>
  </g>
 </g>
</svg>