<svg width="512" height="512" xmlns="http://www.w3.org/2000/svg">
 <!-- Created with UXWing SVG Editor - https://uxwing.com/svg-icon-editor/ -->

 <g>
  <title>background</title>
  <rect x="-1" y="-1" width="514" height="514" id="canvas_background" fill="none"/>
  <g id="canvasGrid" display="none">
   <rect id="svg_1" width="100%" height="100%" x="0" y="0" stroke-width="0" fill="url(#gridpattern)"/>
  </g>
 </g>
 <g>
  <title>Layer 1</title>
  <g id="svg_5" fill="#ffda61">
   <path d="m295.15161,167.64058c23.53395,0 42.65046,19.07793 42.65046,42.65046c0,23.53395 -19.07793,42.65046 -42.65046,42.65046c-23.53395,0 -42.65046,-19.07793 -42.65046,-42.65046c0.01929,-23.53395 19.09722,-42.65046 42.65046,-42.65046zm-157.65817,75.94521l47.89737,0l0,85.22376l-47.89737,0l0,-85.22376zm57.54243,78.06712l0,-71.23842l32.04089,0c13.58025,2.43056 27.16049,9.79938 40.74074,18.34491l24.88426,0c11.26543,0.67515 17.16821,12.09491 6.21142,19.59876c-8.71914,6.40432 -20.23534,6.03781 -32.04089,4.97685c-8.14043,-0.40509 -8.48765,10.53241 0,10.57099c2.95139,0.23148 6.15355,-0.46296 8.95062,-0.46296c14.73765,-0.01929 26.85185,-2.83565 34.27855,-14.46759l3.72299,-8.69985l37.01774,-18.34491c18.51852,-6.09568 31.67438,13.2716 18.03626,26.7554c-26.81327,19.50231 -54.30169,35.55169 -82.42669,48.51466c-20.42824,12.42284 -40.85648,11.99846 -61.26543,0l-30.15046,-15.54784zm86.13039,-133.33332l28.00926,0c0.23148,0 0.44367,0.1929 0.44367,0.44367l0,4.26312c0,0.25077 -0.1929,0.44367 -0.44367,0.44367l-8.73843,0c1.3696,1.60108 2.37269,3.53009 2.81636,5.65201l5.92207,0c0.23148,0 0.44367,0.1929 0.44367,0.44367l0,4.26312c0,0.25077 -0.1929,0.44367 -0.44367,0.44367l-5.94136,0c-0.54012,2.5463 -1.85185,4.82253 -3.68441,6.57793a13.4838,13.4838 0 0 1 -9.33642,3.72299l0,0.01929l-0.40509,0l15.70216,17.90123c0.42438,0.48225 -0.32793,1.5625 -0.65586,1.5625l-7.25309,0.03858l-16.76312,-19.11651a0.59028,0.59028 0 0 1 -0.11574,-0.55941l0,-7.00231l9.49074,0l0,0.01929c1.69753,0 3.26003,-0.67515 4.37886,-1.73611c0.44367,-0.42438 0.81019,-0.88735 1.08025,-1.40818l-14.52546,0c-0.23148,0 -0.44367,-0.1929 -0.44367,-0.44367l0,-4.26312c0,-0.25077 0.1929,-0.44367 0.44367,-0.44367l14.52546,0c-0.28935,-0.52083 -0.65586,-1.00309 -1.08025,-1.40818c-1.11883,-1.08025 -2.66204,-1.73611 -4.37886,-1.73611l0,0.01929l-9.49074,0l0,-7.2338c0,-0.27006 0.21219,-0.46296 0.44367,-0.46296z" fill-rule="evenodd" clip-rule="evenodd" id="svg_4" fill="#ffda61"/>
  </g>
 </g>
</svg>